<svg xmlns="http://www.w3.org/2000/svg" width="31" height="30" viewBox="0 0 31 30">
    <path fill="#FFF" fill-rule="nonzero" d="M15.5 0C6.94 0 0 6.886 0 15.38c0 6.795 4.44 12.559 10.6 14.592.775.14 1.058-.334 1.058-.74 0-.366-.014-1.579-.022-2.863-4.31.93-5.22-1.813-5.22-1.813-.707-1.776-1.722-2.25-1.722-2.25-1.408-.953.107-.934.107-.934 1.556.107 2.376 1.584 2.376 1.584 1.383 2.35 3.629 1.671 4.51 1.277.141-.991.542-1.671.984-2.054-3.44-.389-7.06-1.708-7.06-7.601 0-1.68.605-3.051 1.594-4.128-.158-.39-.691-1.955.153-4.072 0 0 1.3-.413 4.263 1.577a14.864 14.864 0 0 1 3.879-.517c1.317.006 2.643.177 3.88.52 2.958-1.993 4.26-1.578 4.26-1.578.847 2.119.314 3.682.155 4.07.993 1.077 1.593 2.447 1.593 4.128 0 5.908-3.625 7.209-7.078 7.59.558.477 1.052 1.411 1.052 2.846 0 2.055-.021 3.713-.021 4.22 0 .41.282.888 1.067.738C26.563 27.935 31 22.172 31 15.379 31 6.886 24.06 0 15.5 0z" opacity=".6"/>
</svg>
